<svg width="16" height="17" viewBox="0 0 16 17" fill="none" xmlns="http://www.w3.org/2000/svg">
<path fill-rule="evenodd" clip-rule="evenodd" d="M3.21875 3.79048C2.90766 3.79048 2.65547 4.04267 2.65547 4.35376V13.3663C2.65547 13.5079 2.7077 13.6372 2.79395 13.7362L9.79993 7.04864C10.0726 6.78835 10.4994 6.78078 10.7811 7.03122L12.7945 8.8209V4.35376C12.7945 4.04267 12.5423 3.79048 12.2313 3.79048H3.21875ZM12.7945 10.7498C12.7673 10.7315 12.7409 10.7112 12.7157 10.6888L10.3175 8.55702L4.68912 13.9295H12.2313C12.5423 13.9295 12.7945 13.6773 12.7945 13.3663V10.7498ZM1.20703 4.35376C1.20703 3.24272 2.10771 2.34204 3.21875 2.34204H12.2313C13.3423 2.34204 14.243 3.24272 14.243 4.35376V13.3663C14.243 14.4773 13.3423 15.378 12.2313 15.378H3.21875C2.10771 15.378 1.20703 14.4773 1.20703 13.3663V4.35376ZM5.47188 6.36548C5.33855 6.36548 5.23047 6.47356 5.23047 6.60689C5.23047 6.74021 5.33855 6.84829 5.47188 6.84829C5.6052 6.84829 5.71328 6.74021 5.71328 6.60689C5.71328 6.47356 5.6052 6.36548 5.47188 6.36548ZM3.78203 6.60689C3.78203 5.67361 4.5386 4.91704 5.47188 4.91704C6.40514 4.91704 7.16172 5.67361 7.16172 6.60689C7.16172 7.54015 6.40514 8.29673 5.47188 8.29673C4.5386 8.29673 3.78203 7.54015 3.78203 6.60689Z" fill="#787868"/>
</svg>
